<svg xmlns="http://www.w3.org/2000/svg" viewBox="0 0 128 128" role="img" aria-labelledby="clientes-title"><title id="clientes-title">Clientes</title><defs><linearGradient id="clientes-0" gradientUnits="userSpaceOnUse" x1="74" y1="35" x2="101" y2="62"><stop offset="0" stop-color="#CBA6FF"/><stop offset="0.2" stop-color="#8B54DE"/><stop offset="0.48" stop-color="#6732BA"/><stop offset="0.63" stop-color="#A979EF"/><stop offset="1" stop-color="#4B2388"/></linearGradient><linearGradient id="clientes-1" gradientUnits="userSpaceOnUse" x1="74" y1="35" x2="101" y2="62"><stop offset="0" stop-color="#9D64F1"/><stop offset="0.16" stop-color="#7440BC"/><stop offset="0.47" stop-color="#3E1B69"/><stop offset="0.73" stop-color="#7841C4"/><stop offset="1" stop-color="#A46AEE"/></linearGradient><linearGradient id="clientes-2" gradientUnits="userSpaceOnUse" x1="18" y1="18" x2="112" y2="116"><stop offset="0" stop-color="#A371EE"/><stop offset="0.24" stop-color="#7C45C7"/><stop offset="0.65" stop-color="#57268E"/><stop offset="1" stop-color="#381750"/></linearGradient><linearGradient id="clientes-3" gradientUnits="userSpaceOnUse" x1="18" y1="18" x2="112" y2="116"><stop offset="0" stop-color="#9D64F1"/><stop offset="0.16" stop-color="#7440BC"/><stop offset="0.47" stop-color="#3E1B69"/><stop offset="0.73" stop-color="#7841C4"/><stop offset="1" stop-color="#A46AEE"/></linearGradient><linearGradient id="clientes-4" gradientUnits="userSpaceOnUse" x1="29" y1="20" x2="61" y2="53"><stop offset="0" stop-color="#DFCBFF"/><stop offset="0.19" stop-color="#AC7CF7"/><stop offset="0.5" stop-color="#8A51E6"/><stop offset="0.67" stop-color="#C19BF9"/><stop offset="1" stop-color="#6632B7"/></linearGradient><linearGradient id="clientes-5" gradientUnits="userSpaceOnUse" x1="29" y1="20" x2="61" y2="53"><stop offset="0" stop-color="#6D3AA9"/><stop offset="0.35" stop-color="#8A50D2"/><stop offset="0.48" stop-color="#AF7BEE"/><stop offset="0.59" stop-color="#723FB4"/><stop offset="1" stop-color="#3D1A62"/></linearGradient><linearGradient id="clientes-6" gradientUnits="userSpaceOnUse" x1="18" y1="18" x2="112" y2="116"><stop offset="0" stop-color="#CBA6FF"/><stop offset="0.2" stop-color="#8B54DE"/><stop offset="0.48" stop-color="#6732BA"/><stop offset="0.63" stop-color="#A979EF"/><stop offset="1" stop-color="#4B2388"/></linearGradient><linearGradient id="clientes-7" gradientUnits="userSpaceOnUse" x1="18" y1="18" x2="112" y2="116"><stop offset="0" stop-color="#6D3AA9"/><stop offset="0.35" stop-color="#8A50D2"/><stop offset="0.48" stop-color="#AF7BEE"/><stop offset="0.59" stop-color="#723FB4"/><stop offset="1" stop-color="#3D1A62"/></linearGradient></defs><polygon points="101,48 98.52,55.64 92.02,60.36 83.98,60.36 77.48,55.64 75,48 77.48,40.36 83.98,35.64 92.02,35.64 98.52,40.36" fill="url(#clientes-0)"/><polygon points="88,35 100.36,43.98 100.36,52.02 92.02,60.36 88,55" fill="url(#clientes-1)"/><polygon points="77,68 99,68 112,83 112,106 64,106 64,83" fill="url(#clientes-2)"/><polygon points="88,69 99,68 112,83 112,106 88,106" fill="url(#clientes-3)"/><polygon points="61,36 57.94,45.4 49.94,51.22 40.06,51.22 32.06,45.4 29,36 32.06,26.6 40.06,20.78 49.94,20.78 57.94,26.6" fill="url(#clientes-4)"/><polygon points="45,20 60.22,31.06 60.22,40.94 49.94,51.22 45,43" fill="url(#clientes-5)"/><polygon points="31,59 59,59 73,74 73,107 17,107 17,74" fill="url(#clientes-6)"/><polygon points="45,60 59,59 73,74 73,107 45,107" fill="url(#clientes-7)"/></svg>
