<svg xmlns="http://www.w3.org/2000/svg" viewBox="0 0 128 128" role="img" aria-labelledby="envios-title"><title id="envios-title">Envíos</title><defs><linearGradient id="envios-0" gradientUnits="userSpaceOnUse" x1="20" y1="16" x2="67" y2="66"><stop offset="0" stop-color="#DFCBFF"/><stop offset="0.19" stop-color="#AC7CF7"/><stop offset="0.5" stop-color="#8A51E6"/><stop offset="0.67" stop-color="#C19BF9"/><stop offset="1" stop-color="#6632B7"/></linearGradient><linearGradient id="envios-1" gradientUnits="userSpaceOnUse" x1="61" y1="17" x2="102" y2="65"><stop offset="0" stop-color="#CBA6FF"/><stop offset="0.2" stop-color="#8B54DE"/><stop offset="0.48" stop-color="#6732BA"/><stop offset="0.63" stop-color="#A979EF"/><stop offset="1" stop-color="#4B2388"/></linearGradient><linearGradient id="envios-2" gradientUnits="userSpaceOnUse" x1="20" y1="40" x2="63" y2="89"><stop offset="0" stop-color="#A371EE"/><stop offset="0.24" stop-color="#7C45C7"/><stop offset="0.65" stop-color="#57268E"/><stop offset="1" stop-color="#381750"/></linearGradient><linearGradient id="envios-3" gradientUnits="userSpaceOnUse" x1="18" y1="65" x2="65" y2="114"><stop offset="0" stop-color="#6D3AA9"/><stop offset="0.35" stop-color="#8A50D2"/><stop offset="0.48" stop-color="#AF7BEE"/><stop offset="0.59" stop-color="#723FB4"/><stop offset="1" stop-color="#3D1A62"/></linearGradient><linearGradient id="envios-4" gradientUnits="userSpaceOnUse" x1="58" y1="58" x2="112" y2="105"><stop offset="0" stop-color="#9D64F1"/><stop offset="0.16" stop-color="#7440BC"/><stop offset="0.47" stop-color="#3E1B69"/><stop offset="0.73" stop-color="#7841C4"/><stop offset="1" stop-color="#A46AEE"/></linearGradient><linearGradient id="envios-5" gradientUnits="userSpaceOnUse" x1="66" y1="44" x2="112" y2="91"><stop offset="0" stop-color="#8750DB"/><stop offset="0.3" stop-color="#57268F"/><stop offset="0.59" stop-color="#8950DC"/><stop offset="0.65" stop-color="#B583FC"/><stop offset="0.78" stop-color="#7841C4"/><stop offset="1" stop-color="#4A2279"/></linearGradient></defs><polygon points="64,13 20,39 64,64" fill="url(#envios-0)"/><polygon points="64,13 64,64 108,39" fill="url(#envios-1)"/><polygon points="20,39 20,89 64,64" fill="url(#envios-2)"/><polygon points="20,89 64,114 64,64" fill="url(#envios-3)"/><polygon points="64,64 64,114 108,89" fill="url(#envios-4)"/><polygon points="64,64 108,89 108,39" fill="url(#envios-5)"/><path d="M20 39L64 13L108 39" fill="none" stroke="#E1CAFF" stroke-opacity=".5" stroke-width=".7"/><path d="M20 39L64 64L108 39M64 64L64 114" fill="none" stroke="#E0C4FF" stroke-opacity=".2" stroke-width=".6"/></svg>
